<svg version="1.1" id="Layer_1" xmlns="http://www.w3.org/2000/svg" xmlns:xlink="http://www.w3.org/1999/xlink" x="0px" y="0px"
	 width="100%" viewBox="0 0 449 240" enable-background="new 0 0 449 240" xml:space="preserve">
<path fill="#E4E4E4" opacity="1.000000" stroke="none" 
	d="
M334.000000,241.000000 
	C222.666687,241.000000 111.833374,241.000000 1.000045,241.000000 
	C1.000030,161.000031 1.000030,81.000069 1.000015,1.000077 
	C150.666611,1.000051 300.333221,1.000051 449.999878,1.000026 
	C449.999908,80.999924 449.999908,160.999847 449.999939,240.999878 
	C411.500000,241.000000 373.000000,241.000000 334.000000,241.000000 
M249.033890,214.292831 
	C248.711319,213.537445 248.388763,212.782059 247.564468,211.615234 
	C246.901627,213.657135 246.238800,215.699051 245.575958,217.740952 
	C246.075668,218.082748 246.575378,218.424530 247.075104,218.766327 
	C248.388519,217.898956 249.701950,217.031586 251.774063,215.893082 
	C251.838959,214.710785 251.903870,213.528488 251.968765,212.346191 
	C251.703857,212.329620 251.438934,212.313049 251.174011,212.296478 
	C250.994553,213.209991 250.815109,214.123489 250.156799,215.010803 
	C249.837097,215.002884 249.517410,215.002975 249.033890,214.292831 
M155.923538,217.665649 
	C156.185272,216.216232 156.447006,214.766800 157.231689,212.986099 
	C157.339661,212.862839 157.478302,212.754349 157.546722,212.612061 
	C157.611511,212.477386 157.602615,212.307281 157.626129,212.152756 
	C155.854446,212.029510 154.082764,211.906281 152.109131,211.768997 
	C152.109131,213.785858 151.972916,215.263565 152.140137,216.706085 
	C152.409973,219.033752 153.453720,219.658615 155.923538,217.665649 
M230.565704,211.615585 
	C229.851776,213.617752 229.137863,215.619904 228.278732,218.029312 
	C231.410736,218.201538 233.493042,218.316040 236.012390,218.454575 
	C236.119324,216.117493 236.213226,214.065170 236.298950,212.191635 
	C234.578491,213.374390 233.388107,214.192719 232.033875,214.292816 
	C231.711304,213.537445 231.388748,212.782074 230.565704,211.615585 
M270.565704,211.615555 
	C269.853149,213.627075 269.140594,215.638580 268.292633,218.032364 
	C271.441010,218.196960 273.536530,218.306519 275.799133,218.424805 
	C275.799133,216.011368 275.799133,213.918976 275.799133,210.912933 
	C274.033173,212.922501 273.115448,213.966782 272.033875,214.292831 
	C271.711304,213.537460 271.388733,212.782074 270.565704,211.615555 
M218.274307,49.043137 
	C220.298416,48.693123 222.320892,48.051006 224.346893,48.039642 
	C239.567902,47.954216 254.789597,47.993099 270.011078,47.993099 
	C269.328186,47.178497 268.601349,46.933479 267.874481,46.933289 
	C250.779205,46.928764 233.683838,46.933296 216.588791,47.003330 
	C215.331573,47.008484 214.076431,47.521301 211.979065,47.904911 
	C209.998718,47.961254 208.018387,48.017597 205.349533,47.920834 
	C201.270844,47.974567 197.192139,48.028297 192.595718,47.969364 
	C192.419968,47.961445 192.244217,47.953526 192.070923,47.901730 
	C192.070923,47.901730 192.041138,47.869408 191.436676,47.285419 
	C173.383636,47.285419 155.330582,47.285419 137.277542,47.285419 
	C152.034378,47.993313 166.789932,47.964748 181.545059,48.031384 
	C183.285675,48.039246 185.023911,48.569489 186.050705,49.004719 
	C181.320862,50.953346 176.591019,52.901974 171.170471,54.968113 
	C163.121262,59.530025 155.886429,65.020401 150.206131,73.258568 
	C148.097610,76.533203 145.989075,79.807838 143.571304,83.680313 
	C142.708054,85.785553 141.844803,87.890793 140.463364,90.398972 
	C139.642761,92.933975 138.822159,95.468971 137.891815,98.747742 
	C137.265488,101.162537 136.639175,103.577339 136.004395,106.847366 
	C135.250916,109.227020 134.347733,111.573700 133.812927,114.001526 
	C133.577835,115.068771 134.092911,116.301254 134.267380,117.458710 
	C135.302994,117.264595 136.492508,117.325012 137.336761,116.814468 
	C138.492981,116.115295 139.302582,114.281929 140.406982,114.148941 
	C147.728439,113.267288 155.089005,112.710358 162.643921,112.955559 
	C162.670105,118.756889 162.663757,124.558601 162.733047,130.359421 
	C162.785965,134.790558 165.063156,137.092667 169.528824,137.072891 
	C174.002579,137.053101 178.476074,136.970673 183.883850,137.071304 
	C189.246994,137.022629 194.610138,136.973953 200.784210,137.076187 
	C203.636856,139.369705 203.745499,146.298935 200.139908,149.450424 
	C193.949829,150.589706 187.736221,151.622177 181.592941,152.974075 
	C180.575912,153.197876 179.866211,154.818176 179.014481,155.793121 
	C180.161438,156.154114 181.386749,156.978439 182.442444,156.799881 
	C188.655075,155.749115 194.828186,154.464645 201.858078,153.387421 
	C207.891327,153.825287 213.924591,154.263138 220.635086,155.074570 
	C223.022141,155.700485 225.383682,156.493362 227.809738,156.863922 
	C228.687241,156.997971 229.719284,156.120422 230.680801,155.704483 
	C230.120316,154.840439 229.735367,153.470963 228.967438,153.204269 
	C226.352921,152.296310 223.603363,151.777191 220.232468,150.779724 
	C216.011703,150.107437 211.790924,149.435150 207.572144,148.763184 
	C207.572144,144.827728 207.572144,141.147720 207.572144,136.925369 
	C211.976196,136.925369 215.932877,136.925369 220.826859,137.057861 
	C224.573547,137.009018 228.320251,136.960175 232.970947,137.034912 
	C234.627594,137.048065 236.284241,137.071365 237.940887,137.072601 
	C245.456238,137.078201 247.037659,135.532501 247.095734,128.191772 
	C247.141571,122.396858 247.212494,116.602142 248.142776,110.923119 
	C252.429123,111.942513 256.715454,112.961906 261.856812,113.986443 
	C263.567230,113.995155 265.277679,114.003868 267.000336,114.748695 
	C268.222412,116.431404 269.444458,118.114120 270.666504,119.796829 
	C271.013824,119.597221 271.361115,119.397614 271.708405,119.198013 
	C270.489807,113.067368 269.271240,106.936729 267.975983,100.383507 
	C267.975983,100.383507 267.871063,99.967041 267.849213,99.223389 
	C266.669861,96.148582 265.490479,93.073769 264.175598,89.252609 
	C262.537018,86.154968 260.898468,83.057327 259.098755,79.347488 
	C258.750763,78.871521 258.402771,78.395554 258.024689,77.995834 
	C258.024689,77.995834 258.093048,77.950592 257.900879,77.278496 
	C251.684036,67.104279 242.495087,60.043446 232.432129,54.287212 
	C228.199341,51.865963 222.841919,51.410748 218.131897,49.969193 
	C218.131897,49.969193 218.108154,49.806248 218.274307,49.043137 
M149.338409,187.739380 
	C146.488693,181.572067 143.638962,175.404755 140.402161,168.399704 
	C137.966812,169.103165 134.139435,169.063156 133.218185,170.679520 
	C129.815582,176.649429 127.373627,183.166870 123.941673,190.894440 
	C127.578918,189.861389 130.423370,189.816589 132.139084,188.402390 
	C135.395950,185.717865 139.132507,185.433350 142.118179,188.636688 
	C144.259720,190.934357 148.239960,190.550858 150.633240,188.217377 
	C155.141495,188.541489 159.737656,189.499527 164.116714,188.892212 
	C165.990387,188.632339 168.499527,185.201004 168.676575,183.043076 
	C168.805939,181.466095 165.810776,179.284439 163.809738,177.987289 
	C162.098877,176.878281 159.821075,176.643860 157.794037,176.022598 
	C157.906067,175.520996 158.018097,175.019394 158.130127,174.517807 
	C160.772095,174.761887 163.414062,175.005981 166.332855,175.275650 
	C166.858917,173.824402 167.394958,172.345657 168.326141,169.776810 
	C163.393173,169.776810 159.069778,169.116455 155.123810,170.050507 
	C153.097412,170.530182 150.648499,173.756699 150.453156,175.927490 
	C150.310928,177.508087 153.321899,179.740448 155.341431,181.036667 
	C157.108215,182.170685 159.452805,182.404510 161.542130,183.036011 
	C161.438492,183.572174 161.334854,184.108337 161.231216,184.644501 
	C158.161728,184.270142 155.092239,183.895782 151.766647,183.490189 
	C151.199402,184.940643 150.602890,186.465912 149.338409,187.739380 
M111.834435,187.684784 
	C113.013748,185.955093 114.193054,184.225418 115.942513,181.659500 
	C116.233009,185.045624 116.434814,187.397980 116.633232,189.710739 
	C118.910034,189.710739 120.817123,189.710739 122.673996,189.710739 
	C122.673996,182.666977 122.673996,175.936264 122.673996,169.307816 
	C113.698662,167.058685 114.758240,176.447876 110.246658,179.201019 
	C105.597321,176.628677 106.420158,166.522202 97.391388,169.486877 
	C97.391388,176.353775 97.391388,182.951981 97.391388,189.647247 
	C99.709167,189.647247 101.749207,189.647247 103.757423,189.647247 
	C103.938011,187.103287 104.092186,184.931458 104.202354,183.379501 
	C106.599533,184.971100 108.871552,186.479599 111.834435,187.684784 
M95.539711,189.717117 
	C92.859184,183.343964 90.319862,176.905853 87.431808,170.628174 
	C86.198364,167.947067 80.172661,168.209351 78.870911,170.954651 
	C75.978371,177.054733 73.323792,183.267670 70.572212,189.434601 
	C70.883453,189.920670 71.194695,190.406738 71.505928,190.892822 
	C73.982948,189.726547 76.358124,188.121765 78.965370,187.516251 
	C81.620270,186.899673 86.115776,186.162109 86.975121,187.416458 
	C89.265694,190.759949 91.986717,189.842697 95.539711,189.717117 
M188.463730,186.115646 
	C191.674484,176.169357 181.660294,178.970383 178.251831,174.503311 
	C180.851746,174.742203 183.451660,174.981079 186.403549,175.252289 
	C186.922653,173.953232 187.507263,172.490219 188.162460,170.850586 
	C183.442825,168.560593 178.820953,167.964127 174.500732,170.212677 
	C172.625366,171.188766 170.513550,173.887497 170.559540,175.753265 
	C170.603668,177.544495 173.018723,179.719879 174.908096,180.899902 
	C176.838577,182.105621 179.396667,182.306442 181.680008,182.947174 
	C181.587158,183.486557 181.494308,184.025955 181.401459,184.565353 
	C178.343750,184.227325 175.286057,183.889282 171.997162,183.525696 
	C171.432159,184.792328 170.791534,186.228470 169.976837,188.054886 
	C176.551102,190.296387 182.514069,191.851852 188.463730,186.115646 
M245.016052,187.106827 
	C245.026703,188.102585 244.819031,189.170349 245.116302,190.071564 
	C245.359116,190.807693 246.201050,191.833359 246.784195,191.837814 
	C247.410767,191.842621 248.570618,190.824615 248.592285,190.220413 
	C248.749039,185.852646 248.676376,181.476624 248.676376,177.103226 
	C248.021439,176.857422 247.366516,176.611618 246.711578,176.365829 
	C244.351227,179.371658 241.990860,182.377502 239.719940,185.269424 
	C236.229126,183.024109 236.530640,177.243240 231.262848,176.969818 
	C229.668274,188.304611 230.293030,191.533142 233.954102,191.577179 
	C234.233002,189.747864 234.511902,187.918549 234.901154,185.365524 
	C236.804764,187.483429 238.151077,188.981308 239.946625,190.978973 
	C241.350372,188.928299 242.301941,187.429535 243.403229,186.050308 
	C243.562500,185.850845 244.440338,186.225113 245.016052,187.106827 
M225.998413,179.523483 
	C223.069672,178.717407 219.998032,176.976669 217.256607,177.395828 
	C214.992081,177.742050 212.169571,180.294876 211.357498,182.514893 
	C210.651031,184.446228 211.781769,187.774368 213.220108,189.606354 
	C215.781311,192.868439 221.742371,192.964523 225.056534,190.261261 
	C228.547775,187.413544 229.037399,183.933533 225.998413,179.523483 
M315.147400,189.100143 
	C315.751465,190.058182 316.355530,191.016220 316.959595,191.974258 
	C317.979980,190.797256 319.000366,189.620239 320.492676,187.898880 
	C322.692078,189.278473 325.306671,190.918503 327.921265,192.558517 
	C328.173737,192.233139 328.426208,191.907761 328.678680,191.582382 
	C327.860016,190.190262 327.041351,188.798141 326.222687,187.406021 
	C326.670288,187.408325 327.117889,187.410614 327.565521,187.412918 
	C327.787872,184.882034 329.099609,181.671463 328.025269,179.949631 
	C324.984344,175.075836 319.913086,177.317780 315.144165,177.161118 
	C315.144165,181.229523 315.144165,184.706726 315.147400,189.100143 
M282.905670,183.329910 
	C282.904114,182.163574 283.147247,180.925049 282.830627,179.851624 
	C282.526947,178.821945 281.642700,177.963501 281.013611,177.029831 
	C280.351562,177.921097 279.288574,178.741135 279.114868,179.719131 
	C278.799042,181.497192 279.404785,183.491501 278.883850,185.164505 
	C278.438690,186.594299 276.953613,187.700302 275.928497,188.949524 
	C274.685577,187.722595 272.705780,186.670746 272.363464,185.229858 
	C271.772736,182.743515 272.199768,180.015350 272.199768,177.383713 
	C268.090973,177.477768 268.091003,177.477768 268.311035,183.694031 
	C268.513275,189.407059 270.645935,191.924194 275.370728,192.026550 
	C280.256897,192.132401 282.234283,190.081818 282.905670,183.329910 
M309.080505,192.031891 
	C310.169556,191.592438 311.258606,191.152985 312.347656,190.713531 
	C311.377167,190.149384 310.458649,189.259613 309.424469,189.094666 
	C307.722534,188.823212 305.945740,189.021072 304.200470,189.021072 
	C304.073456,188.426605 303.946472,187.832138 303.819458,187.237671 
	C306.319550,186.372726 308.819672,185.507797 311.319763,184.642853 
	C311.183228,184.200623 311.046692,183.758392 310.910126,183.316177 
	C308.669739,183.082123 306.429321,182.848083 304.188934,182.614029 
	C304.068512,182.093475 303.948059,181.572922 303.827637,181.052368 
	C306.658569,180.322296 309.489471,179.592239 312.320404,178.862183 
	C312.186462,178.332657 312.052521,177.803116 311.918579,177.273590 
	C308.187836,177.273590 304.457092,177.273590 300.470001,177.273590 
	C300.470001,182.187607 300.470001,186.903000 300.470001,192.032303 
	C303.260651,192.032303 305.728760,192.032303 309.080505,192.031891 
M252.143494,184.480743 
	C252.143539,185.478836 251.946060,186.528107 252.188293,187.463470 
	C252.587143,189.003601 253.270615,190.470047 253.834106,191.967545 
	C254.894394,190.835022 255.954681,189.702484 257.373840,188.186615 
	C263.701752,187.542908 266.461700,185.614716 265.962128,181.774780 
	C265.398376,177.441330 260.437195,175.914688 252.143600,177.745239 
	C252.143600,179.605942 252.143600,181.574066 252.143494,184.480743 
M207.835815,188.269135 
	C207.205124,188.275772 206.566177,188.351166 205.945206,188.276688 
	C203.665115,188.003235 201.168854,188.126785 199.222382,187.158875 
	C198.427460,186.763565 198.196350,182.797867 198.800293,182.470566 
	C200.833084,181.368851 203.349884,181.140823 205.695465,180.644516 
	C206.733246,180.424927 207.804504,180.363556 209.645630,180.131363 
	C204.681244,176.342209 200.125290,175.792542 197.206879,178.982239 
	C195.577805,180.762756 194.119003,184.409943 194.889420,186.250931 
	C195.899445,188.664490 198.929489,190.799210 201.566498,191.799393 
	C203.998566,192.721848 207.298248,192.504517 207.835815,188.269135 
M286.516632,179.948181 
	C287.569794,180.986496 289.230042,181.871765 289.539062,183.097672 
	C290.050171,185.125214 289.528931,187.391052 289.775574,189.517883 
	C289.875946,190.383713 290.846832,191.148590 291.421661,191.959412 
	C292.010406,191.171875 293.053192,190.414078 293.107056,189.591507 
	C293.309021,186.507950 293.187897,183.403214 293.187897,180.989685 
	C295.457672,179.920700 296.910278,179.236588 298.362854,178.552475 
	C298.222107,178.031448 298.081360,177.510422 297.940643,176.989395 
	C294.210846,176.989395 290.475891,176.899506 286.758392,177.113403 
	C286.336578,177.137680 286.013000,178.870041 286.516632,179.948181 
M149.740753,217.527298 
	C149.403717,214.636154 148.464096,212.928680 144.564072,215.517105 
	C146.659927,216.577713 148.155014,217.334305 149.740753,217.527298 
M185.380783,215.267761 
	C186.657822,216.373795 187.934875,217.479828 189.687393,218.997650 
	C189.534988,215.398590 189.402054,212.820328 185.380783,215.267761 
z"/>
<path fill="#AEAFE6" opacity="1.000000" stroke="none" 
	d="
M267.871063,99.967041 
	C267.871063,99.967041 267.975983,100.383507 267.982178,101.032448 
	C267.915649,102.842422 267.842896,104.003456 267.435364,105.067131 
	C264.990875,103.746338 262.905121,102.479073 260.766418,101.308563 
	C256.259308,98.841850 251.724442,96.425812 247.047958,93.657227 
	C244.313644,87.975693 239.479889,89.037636 234.591934,89.071259 
	C233.143784,88.940811 232.086655,88.879845 230.961670,88.469391 
	C225.265106,85.413460 219.636398,82.707001 213.755127,79.742905 
	C212.321838,78.978905 211.168213,78.392853 209.955597,77.980080 
	C204.984665,76.288017 199.995728,74.648743 195.011261,72.991562 
	C195.009079,72.993088 195.016449,72.981644 195.016510,72.608170 
	C195.007431,71.486893 194.998276,70.739098 195.382202,70.051430 
	C198.250793,70.420181 200.726334,70.728806 203.201889,71.037422 
	C203.314026,70.584824 203.426163,70.132217 203.538315,69.679619 
	C198.696884,67.125961 193.855469,64.572304 189.103668,61.657169 
	C190.809525,61.042870 192.545517,60.281281 194.020523,60.628468 
	C199.376373,61.889141 204.644775,63.521294 210.169540,65.274261 
	C213.583313,67.033585 216.773727,68.531967 220.038361,70.364380 
	C221.071335,71.138550 222.030060,71.578690 222.993774,72.012085 
	C222.998749,72.005341 222.980194,72.018219 222.990463,72.390778 
	C223.845413,73.841614 224.470642,75.289963 225.568649,75.941086 
	C236.854156,82.633461 248.198425,89.227669 259.570068,95.773232 
	C262.252838,97.317467 265.099701,98.576698 267.871063,99.967041 
z"/>
<path fill="#D2B8E3" opacity="1.000000" stroke="none" 
	d="
M195.013428,72.990044 
	C199.995728,74.648743 204.984665,76.288017 209.955597,77.980080 
	C211.168213,78.392853 212.321838,78.978905 213.544434,79.986328 
	C212.392807,80.996994 211.199356,81.506599 209.543518,82.010406 
	C201.273499,83.320305 193.445175,84.530449 185.677826,86.051857 
	C184.326385,86.316559 183.232193,87.894684 181.556488,88.940109 
	C177.783813,89.009727 174.463913,89.164192 171.166489,88.958626 
	C167.515228,88.731010 164.683289,89.845329 162.355881,93.017441 
	C160.345306,93.273560 158.721375,93.458786 157.131302,93.801208 
	C150.749023,95.175667 144.377213,96.598816 138.001541,98.003967 
	C138.822159,95.468971 139.642761,92.933975 141.140961,90.198563 
	C142.649872,89.976616 143.529037,90.125870 144.305466,89.908356 
	C160.278503,85.433517 176.254715,80.967751 192.172852,76.304047 
	C193.342926,75.961227 194.076767,74.129539 195.013428,72.990044 
z"/>
<path fill="#5D9CE5" opacity="1.000000" stroke="none" 
	d="
M259.259888,79.959679 
	C260.898468,83.057327 262.537018,86.154968 263.854889,89.588936 
	C256.020477,85.945465 248.506760,81.965668 240.928650,77.651161 
	C239.911789,76.878448 238.959305,76.440445 238.004028,76.000610 
	C238.001221,75.998779 237.996948,75.994202 237.928055,75.653259 
	C237.400848,74.873299 237.012787,74.302078 236.473465,74.015472 
	C230.277954,70.723038 223.880585,67.769295 217.890228,64.141953 
	C209.475220,59.046410 201.358017,53.459045 193.113449,48.082027 
	C197.192139,48.028297 201.270844,47.974567 205.896347,48.254669 
	C212.284058,52.513718 217.938416,56.762226 224.019760,60.270630 
	C229.774490,63.590607 235.977341,66.133774 241.991241,69.010010 
	C241.999390,69.001419 241.981766,69.022339 242.031525,69.370438 
	C245.382690,71.483635 248.684113,73.248734 252.277557,75.049088 
	C253.042816,75.395157 253.516022,75.705963 254.054901,76.352432 
	C255.074631,77.130531 256.028687,77.572968 257.260742,78.006790 
	C257.723541,77.982323 257.908295,77.966461 258.093048,77.950592 
	C258.093048,77.950592 258.024689,77.995834 258.056580,78.279053 
	C258.478973,79.028076 258.869415,79.493874 259.259888,79.959679 
z"/>
<path fill="#541D8E" opacity="1.000000" stroke="none" 
	d="
M111.489006,187.836441 
	C108.871552,186.479599 106.599533,184.971100 104.202354,183.379501 
	C104.092186,184.931458 103.938011,187.103287 103.757423,189.647247 
	C101.749207,189.647247 99.709167,189.647247 97.391388,189.647247 
	C97.391388,182.951981 97.391388,176.353775 97.391388,169.486877 
	C106.420158,166.522202 105.597321,176.628677 110.246658,179.201019 
	C114.758240,176.447876 113.698662,167.058685 122.673996,169.307816 
	C122.673996,175.936264 122.673996,182.666977 122.673996,189.710739 
	C120.817123,189.710739 118.910034,189.710739 116.633232,189.710739 
	C116.434814,187.397980 116.233009,185.045624 115.942513,181.659500 
	C114.193054,184.225418 113.013748,185.955093 111.489006,187.836441 
z"/>
<path fill="#CA98E9" opacity="1.000000" stroke="none" 
	d="
M189.014053,62.018650 
	C193.855469,64.572304 198.696884,67.125961 203.538315,69.679619 
	C203.426163,70.132217 203.314026,70.584824 203.201889,71.037422 
	C200.726334,70.728806 198.250793,70.420181 194.993988,69.996010 
	C187.764526,69.108978 181.233170,67.328667 174.891632,67.851303 
	C168.619751,68.368202 162.570908,71.330589 156.355057,72.955643 
	C154.607880,73.412407 152.617081,72.937248 150.738022,72.889549 
	C155.886429,65.020401 163.121262,59.530025 171.687546,55.238022 
	C173.705292,56.659439 175.043198,58.302242 176.739212,58.864079 
	C180.740112,60.189449 184.911575,60.999916 189.014053,62.018650 
z"/>
<path fill="#541D8E" opacity="1.000000" stroke="none" 
	d="
M149.919205,187.885056 
	C148.239960,190.550858 144.259720,190.934357 142.118179,188.636688 
	C139.132507,185.433350 135.395950,185.717865 132.139084,188.402390 
	C130.423370,189.816589 127.578918,189.861389 123.941673,190.894440 
	C127.373627,183.166870 129.815582,176.649429 133.218185,170.679520 
	C134.139435,169.063156 137.966812,169.103165 140.402161,168.399704 
	C143.638962,175.404755 146.488693,181.572067 149.649170,187.839905 
	C149.959946,187.940445 149.919205,187.885056 149.919205,187.885056 
z"/>
<path fill="#541D8E" opacity="1.000000" stroke="none" 
	d="
M95.159393,189.838821 
	C91.986717,189.842697 89.265694,190.759949 86.975121,187.416458 
	C86.115776,186.162109 81.620270,186.899673 78.965370,187.516251 
	C76.358124,188.121765 73.982948,189.726547 71.505928,190.892822 
	C71.194695,190.406738 70.883453,189.920670 70.572212,189.434601 
	C73.323792,183.267670 75.978371,177.054733 78.870911,170.954651 
	C80.172661,168.209351 86.198364,167.947067 87.431808,170.628174 
	C90.319862,176.905853 92.859184,183.343964 95.159393,189.838821 
z"/>
<path fill="#D2B0E7" opacity="1.000000" stroke="none" 
	d="
M195.011261,72.991562 
	C194.076767,74.129539 193.342926,75.961227 192.172852,76.304047 
	C176.254715,80.967751 160.278503,85.433517 144.305466,89.908356 
	C143.529037,90.125870 142.649872,89.976616 141.400055,89.997086 
	C141.844803,87.890793 142.708054,85.785553 144.134155,83.345886 
	C147.566284,82.264313 150.405441,81.362831 153.309921,80.796265 
	C167.192429,78.088287 180.072922,70.009781 195.016449,72.981644 
	C195.016449,72.981644 195.009079,72.993088 195.011261,72.991562 
z"/>
<path fill="#541D8E" opacity="1.000000" stroke="none" 
	d="
M162.758087,93.018799 
	C164.683289,89.845329 167.515228,88.731010 171.166489,88.958626 
	C174.463913,89.164192 177.783813,89.009727 181.865402,89.005203 
	C183.055420,89.041763 183.473846,89.087151 183.920670,89.499832 
	C183.930756,90.848305 183.912430,91.829468 183.437164,92.870209 
	C178.815002,92.968971 174.618607,92.735481 170.502518,93.205338 
	C169.183624,93.355881 167.144989,95.288971 167.041183,96.539749 
	C166.671280,100.996780 166.992355,105.511162 166.972900,110.466492 
	C166.877106,117.025826 166.943848,123.124390 166.805725,129.218307 
	C166.743286,131.972900 167.780899,133.070068 170.547440,133.023407 
	C174.660858,132.954056 178.778625,133.142319 182.912659,133.590363 
	C182.937088,134.945084 182.943390,135.930389 182.949677,136.915695 
	C178.476074,136.970673 174.002579,137.053101 169.528824,137.072891 
	C165.063156,137.092667 162.785965,134.790558 162.733047,130.359421 
	C162.663757,124.558601 162.670105,118.756889 162.658356,112.047813 
	C162.589020,107.106010 162.505249,103.071953 162.538208,98.621155 
	C162.689346,96.475883 162.723724,94.747337 162.758087,93.018799 
z"/>
<path fill="#DED3E2" opacity="1.000000" stroke="none" 
	d="
M162.421463,99.037903 
	C162.505249,103.071953 162.589020,107.106010 162.554810,111.593918 
	C155.089005,112.710358 147.728439,113.267288 140.406982,114.148941 
	C139.302582,114.281929 138.492981,116.115295 137.336761,116.814468 
	C136.492508,117.325012 135.302994,117.264595 134.267380,117.458710 
	C134.092911,116.301254 133.577835,115.068771 133.812927,114.001526 
	C134.347733,111.573700 135.250916,109.227020 136.404205,106.410690 
	C145.343170,103.661972 153.882324,101.349937 162.421463,99.037903 
z"/>
<path fill="#CEA4E8" opacity="1.000000" stroke="none" 
	d="
M195.016510,72.608170 
	C180.072922,70.009781 167.192429,78.088287 153.309921,80.796265 
	C150.405441,81.362831 147.566284,82.264313 144.288788,83.046959 
	C145.989075,79.807838 148.097610,76.533203 150.472076,73.074059 
	C152.617081,72.937248 154.607880,73.412407 156.355057,72.955643 
	C162.570908,71.330589 168.619751,68.368202 174.891632,67.851303 
	C181.233170,67.328667 187.764526,69.108978 194.600922,69.935883 
	C194.998276,70.739098 195.007431,71.486893 195.016510,72.608170 
z"/>
<path fill="#541D8E" opacity="1.000000" stroke="none" 
	d="
M188.258392,186.416489 
	C182.514069,191.851852 176.551102,190.296387 169.976837,188.054886 
	C170.791534,186.228470 171.432159,184.792328 171.997162,183.525696 
	C175.286057,183.889282 178.343750,184.227325 181.401459,184.565353 
	C181.494308,184.025955 181.587158,183.486557 181.680008,182.947174 
	C179.396667,182.306442 176.838577,182.105621 174.908096,180.899902 
	C173.018723,179.719879 170.603668,177.544495 170.559540,175.753265 
	C170.513550,173.887497 172.625366,171.188766 174.500732,170.212677 
	C178.820953,167.964127 183.442825,168.560593 188.162460,170.850586 
	C187.507263,172.490219 186.922653,173.953232 186.403549,175.252289 
	C183.451660,174.981079 180.851746,174.742203 178.251831,174.503311 
	C181.660294,178.970383 191.674484,176.169357 188.258392,186.416489 
z"/>
<path fill="#541D8E" opacity="1.000000" stroke="none" 
	d="
M149.983154,187.965820 
	C150.602890,186.465912 151.199402,184.940643 151.766647,183.490189 
	C155.092239,183.895782 158.161728,184.270142 161.231216,184.644501 
	C161.334854,184.108337 161.438492,183.572174 161.542130,183.036011 
	C159.452805,182.404510 157.108215,182.170685 155.341431,181.036667 
	C153.321899,179.740448 150.310928,177.508087 150.453156,175.927490 
	C150.648499,173.756699 153.097412,170.530182 155.123810,170.050507 
	C159.069778,169.116455 163.393173,169.776810 168.326141,169.776810 
	C167.394958,172.345657 166.858917,173.824402 166.332855,175.275650 
	C163.414062,175.005981 160.772095,174.761887 158.130127,174.517807 
	C158.018097,175.019394 157.906067,175.520996 157.794037,176.022598 
	C159.821075,176.643860 162.098877,176.878281 163.809738,177.987289 
	C165.810776,179.284439 168.805939,181.466095 168.676575,183.043076 
	C168.499527,185.201004 165.990387,188.632339 164.116714,188.892212 
	C159.737656,189.499527 155.141495,188.541489 150.276215,188.051208 
	C149.919205,187.885056 149.959946,187.940445 149.983154,187.965820 
z"/>
<path fill="#88ADE6" opacity="1.000000" stroke="none" 
	d="
M240.993042,77.985870 
	C248.506760,81.965668 256.020477,85.945465 263.922668,89.962112 
	C265.490479,93.073769 266.669861,96.148582 267.860138,99.595215 
	C265.099701,98.576698 262.252838,97.317467 259.570068,95.773232 
	C248.198425,89.227669 236.854156,82.633461 225.568649,75.941086 
	C224.470642,75.289963 223.845413,73.841614 223.381775,72.393295 
	C228.507523,73.346909 233.252228,74.670555 237.996948,75.994202 
	C237.996948,75.994202 238.001221,75.998779 238.151978,76.282578 
	C239.199493,77.039528 240.096268,77.512695 240.993042,77.985870 
z"/>
<path fill="#A48AE8" opacity="1.000000" stroke="none" 
	d="
M189.103668,61.657169 
	C184.911575,60.999916 180.740112,60.189449 176.739212,58.864079 
	C175.043198,58.302242 173.705292,56.659439 172.032898,55.179268 
	C176.591019,52.901974 181.320862,50.953346 186.800720,48.964966 
	C189.047531,48.573280 190.544342,48.221348 192.041138,47.869411 
	C192.041138,47.869408 192.070923,47.901730 192.051544,48.290195 
	C196.258957,54.253899 200.656815,59.620220 207.248550,62.652630 
	C208.289474,63.131481 209.053894,64.211342 209.946167,65.013329 
	C204.644775,63.521294 199.376373,61.889141 194.020523,60.628468 
	C192.545517,60.281281 190.809525,61.042870 189.103668,61.657169 
z"/>
<path fill="#FC7210" opacity="1.000000" stroke="none" 
	d="
M234.982941,89.140739 
	C239.479889,89.037636 244.313644,87.975693 246.997375,94.114380 
	C247.153198,98.265144 247.206604,101.627007 247.189026,105.357834 
	C247.169479,107.420311 247.220886,109.113823 247.272278,110.807335 
	C247.212494,116.602142 247.141571,122.396858 247.095734,128.191772 
	C247.037659,135.532501 245.456238,137.078201 237.940887,137.072601 
	C236.284241,137.071365 234.627594,137.048065 232.503464,136.604156 
	C232.045288,135.188950 232.054611,134.204483 232.506622,133.139130 
	C234.594070,133.036621 236.259720,132.837418 237.879501,133.028046 
	C242.031372,133.516663 243.315765,131.751205 243.140869,127.690987 
	C242.815552,120.138779 242.941467,112.567116 242.958679,104.549675 
	C243.174179,93.302727 243.174179,93.302727 235.024628,92.437561 
	C235.003082,91.094322 234.993011,90.117531 234.982941,89.140739 
z"/>
<path fill="#2883E2" opacity="1.000000" stroke="none" 
	d="
M253.989227,76.016769 
	C253.516022,75.705963 253.042816,75.395157 252.121429,74.744522 
	C248.442749,72.610580 245.212265,70.816460 241.981766,69.022339 
	C241.981766,69.022339 241.999390,69.001419 241.843231,68.703133 
	C238.457123,66.215752 235.087189,64.204399 232.029419,61.796631 
	C227.240662,58.025822 222.662888,53.987057 217.995743,50.061798 
	C222.841919,51.410748 228.199341,51.865963 232.432129,54.287212 
	C242.495087,60.043446 251.684036,67.104279 257.996948,77.614548 
	C257.908295,77.966461 257.723541,77.982323 257.120972,77.717361 
	C255.798508,76.963287 254.893875,76.490028 253.989227,76.016769 
z"/>
<path fill="#D82B65" opacity="1.000000" stroke="none" 
	d="
M219.957825,154.701004 
	C213.924591,154.263138 207.891327,153.825287 201.427841,152.959717 
	C200.992142,151.568893 200.986679,150.605759 200.981216,149.642624 
	C203.745499,146.298935 203.636856,139.369705 200.383087,136.629547 
	C199.977188,135.192993 199.972412,134.203049 200.432983,133.126221 
	C207.228607,133.094574 213.558868,133.149841 219.901276,133.577057 
	C219.905472,134.941116 219.897507,135.933243 219.889557,136.925369 
	C215.932877,136.925369 211.976196,136.925369 207.572144,136.925369 
	C207.572144,141.147720 207.572144,144.827728 207.572144,148.763184 
	C211.790924,149.435150 216.011703,150.107437 220.539856,151.254578 
	C220.550781,152.719955 220.254303,153.710480 219.957825,154.701004 
z"/>
<path fill="#C9D6E2" opacity="1.000000" stroke="none" 
	d="
M247.260010,104.988869 
	C247.206604,101.627007 247.153198,98.265144 247.150375,94.446129 
	C251.724442,96.425812 256.259308,98.841850 260.766418,101.308563 
	C262.905121,102.479073 264.990875,103.746338 267.474579,105.487991 
	C267.561737,108.674995 267.274933,111.343788 266.988098,114.012589 
	C265.277679,114.003868 263.567230,113.995155 261.380127,113.640442 
	C256.355621,110.525917 251.807816,107.757393 247.260010,104.988869 
z"/>
<path fill="#829BE7" opacity="1.000000" stroke="none" 
	d="
M210.169540,65.274261 
	C209.053894,64.211342 208.289474,63.131481 207.248550,62.652630 
	C200.656815,59.620220 196.258957,54.253899 192.050308,48.312134 
	C192.244217,47.953526 192.419968,47.961445 192.854584,48.025696 
	C201.358017,53.459045 209.475220,59.046410 217.890228,64.141953 
	C223.880585,67.769295 230.277954,70.723038 236.473465,74.015472 
	C237.012787,74.302078 237.400848,74.873299 237.928055,75.653259 
	C233.252228,74.670555 228.507523,73.346909 223.371490,72.020737 
	C222.980194,72.018219 222.998749,72.005341 222.847992,71.724174 
	C221.786194,70.972122 220.875168,70.501236 219.964127,70.030350 
	C216.773727,68.531967 213.583313,67.033585 210.169540,65.274261 
z"/>
<path fill="#AD2776" opacity="1.000000" stroke="none" 
	d="
M245.000854,186.720352 
	C244.440338,186.225113 243.562500,185.850845 243.403229,186.050308 
	C242.301941,187.429535 241.350372,188.928299 239.946625,190.978973 
	C238.151077,188.981308 236.804764,187.483429 234.901154,185.365524 
	C234.511902,187.918549 234.233002,189.747864 233.950272,191.578217 
	C230.293030,191.533142 229.668274,188.304611 231.262848,176.969818 
	C236.530640,177.243240 236.229126,183.024109 239.719940,185.269424 
	C241.990860,182.377502 244.351227,179.371658 246.711578,176.365829 
	C247.366516,176.611618 248.021439,176.857422 248.676376,177.103226 
	C248.676376,181.476624 248.749039,185.852646 248.592285,190.220413 
	C248.570618,190.824615 247.410767,191.842621 246.784195,191.837814 
	C246.201050,191.833359 245.359116,190.807693 245.116302,190.071564 
	C244.819031,189.170349 245.026703,188.102585 245.000854,186.720352 
z"/>
<path fill="#D9C8E5" opacity="1.000000" stroke="none" 
	d="
M162.538208,98.621162 
	C153.882324,101.349937 145.343170,103.661972 136.408447,105.983070 
	C136.639175,103.577339 137.265488,101.162537 137.946686,98.375854 
	C144.377213,96.598816 150.749023,95.175667 157.131302,93.801208 
	C158.721375,93.458786 160.345306,93.273560 162.355881,93.017441 
	C162.723724,94.747337 162.689346,96.475883 162.538208,98.621162 
z"/>
<path fill="#AD2776" opacity="1.000000" stroke="none" 
	d="
M226.256531,179.821869 
	C229.037399,183.933533 228.547775,187.413544 225.056534,190.261261 
	C221.742371,192.964523 215.781311,192.868439 213.220108,189.606354 
	C211.781769,187.774368 210.651031,184.446228 211.357498,182.514893 
	C212.169571,180.294876 214.992081,177.742050 217.256607,177.395828 
	C219.998032,176.976669 223.069672,178.717407 226.256531,179.821869 
M221.860886,180.447525 
	C218.877365,179.554001 215.939651,179.604065 215.077667,183.112900 
	C214.708069,184.617432 215.627548,187.451202 216.806870,188.070267 
	C218.319870,188.864471 221.205917,188.748886 222.569366,187.751938 
	C225.079269,185.916702 224.737549,183.205444 221.860886,180.447525 
z"/>
<path fill="#AD2776" opacity="1.000000" stroke="none" 
	d="
M315.145782,188.642029 
	C315.144165,184.706726 315.144165,181.229523 315.144165,177.161118 
	C319.913086,177.317780 324.984344,175.075836 328.025269,179.949631 
	C329.099609,181.671463 327.787872,184.882034 327.565521,187.412918 
	C327.117889,187.410614 326.670288,187.408325 326.222687,187.406021 
	C327.041351,188.798141 327.860016,190.190262 328.678680,191.582382 
	C328.426208,191.907761 328.173737,192.233139 327.921265,192.558517 
	C325.306671,190.918503 322.692078,189.278473 320.492676,187.898880 
	C319.000366,189.620239 317.979980,190.797256 316.959595,191.974258 
	C316.355530,191.016220 315.751465,190.058182 315.145782,188.642029 
M324.898651,183.282547 
	C325.117859,178.616364 321.892395,180.307373 319.284882,180.074081 
	C319.284882,181.757080 319.284882,183.134598 319.284882,185.238770 
	C321.212646,184.774506 322.835724,184.383591 324.898651,183.282547 
z"/>
<path fill="#AD2776" opacity="1.000000" stroke="none" 
	d="
M282.904785,183.772186 
	C282.234283,190.081818 280.256897,192.132401 275.370728,192.026550 
	C270.645935,191.924194 268.513275,189.407059 268.311035,183.694031 
	C268.091003,177.477768 268.090973,177.477768 272.199768,177.383713 
	C272.199768,180.015350 271.772736,182.743515 272.363464,185.229858 
	C272.705780,186.670746 274.685577,187.722595 275.928497,188.949524 
	C276.953613,187.700302 278.438690,186.594299 278.883850,185.164505 
	C279.404785,183.491501 278.799042,181.497192 279.114868,179.719131 
	C279.288574,178.741135 280.351562,177.921097 281.013611,177.029816 
	C281.642700,177.963501 282.526947,178.821945 282.830627,179.851624 
	C283.147247,180.925049 282.904114,182.163574 282.904785,183.772186 
z"/>
<path fill="#AD2776" opacity="1.000000" stroke="none" 
	d="
M308.638672,192.032104 
	C305.728760,192.032303 303.260651,192.032303 300.470001,192.032303 
	C300.470001,186.903000 300.470001,182.187607 300.470001,177.273590 
	C304.457092,177.273590 308.187836,177.273590 311.918579,177.273590 
	C312.052521,177.803116 312.186462,178.332657 312.320404,178.862183 
	C309.489471,179.592239 306.658569,180.322296 303.827637,181.052368 
	C303.948059,181.572922 304.068512,182.093475 304.188934,182.614029 
	C306.429321,182.848083 308.669739,183.082123 310.910126,183.316177 
	C311.046692,183.758392 311.183228,184.200623 311.319763,184.642853 
	C308.819672,185.507797 306.319550,186.372726 303.819458,187.237671 
	C303.946472,187.832138 304.073456,188.426605 304.200470,189.021072 
	C305.945740,189.021072 307.722534,188.823212 309.424469,189.094666 
	C310.458649,189.259613 311.377167,190.149384 312.347656,190.713531 
	C311.258606,191.152985 310.169556,191.592438 308.638672,192.032104 
z"/>
<path fill="#4189E6" opacity="1.000000" stroke="none" 
	d="
M218.063812,50.015495 
	C222.662888,53.987057 227.240662,58.025822 232.029419,61.796631 
	C235.087189,64.204399 238.457123,66.215752 241.835098,68.711716 
	C235.977341,66.133774 229.774490,63.590607 224.019760,60.270630 
	C217.938416,56.762226 212.284058,52.513718 206.240601,48.331226 
	C208.018387,48.017597 209.998718,47.961254 212.738007,47.988770 
	C215.034027,48.650501 216.571091,49.228374 218.108154,49.806244 
	C218.108154,49.806248 218.131897,49.969193 218.063812,50.015495 
z"/>
<path fill="#AD2776" opacity="1.000000" stroke="none" 
	d="
M252.143555,184.011459 
	C252.143600,181.574066 252.143600,179.605942 252.143600,177.745239 
	C260.437195,175.914688 265.398376,177.441330 265.962128,181.774780 
	C266.461700,185.614716 263.701752,187.542908 257.373840,188.186615 
	C255.954681,189.702484 254.894394,190.835022 253.834106,191.967545 
	C253.270615,190.470047 252.587143,189.003601 252.188293,187.463470 
	C251.946060,186.528107 252.143539,185.478836 252.143555,184.011459 
M262.046021,182.457840 
	C260.360657,181.423950 258.675262,180.390045 255.863602,178.665222 
	C256.117615,182.042435 256.221405,183.422104 256.396057,185.743973 
	C258.642151,184.737640 260.270935,184.007889 262.046021,182.457840 
z"/>
<path fill="#AD2776" opacity="1.000000" stroke="none" 
	d="
M200.560562,149.546524 
	C200.986679,150.605759 200.992142,151.568893 201.006104,152.895477 
	C194.828186,154.464645 188.655075,155.749115 182.442444,156.799881 
	C181.386749,156.978439 180.161438,156.154114 179.014481,155.793121 
	C179.866211,154.818176 180.575912,153.197876 181.592941,152.974075 
	C187.736221,151.622177 193.949829,150.589706 200.560562,149.546524 
z"/>
<path fill="#AD2776" opacity="1.000000" stroke="none" 
	d="
M208.109283,188.542999 
	C207.298248,192.504517 203.998566,192.721848 201.566498,191.799393 
	C198.929489,190.799210 195.899445,188.664490 194.889420,186.250931 
	C194.119003,184.409943 195.577805,180.762756 197.206879,178.982239 
	C200.125290,175.792542 204.681244,176.342209 209.645630,180.131363 
	C207.804504,180.363556 206.733246,180.424927 205.695465,180.644516 
	C203.349884,181.140823 200.833084,181.368851 198.800293,182.470566 
	C198.196350,182.797867 198.427460,186.763565 199.222382,187.158875 
	C201.168854,188.126785 203.665115,188.003235 205.945206,188.276688 
	C206.566177,188.351166 207.205124,188.275772 208.109283,188.542999 
z"/>
<path fill="#AD2776" opacity="1.000000" stroke="none" 
	d="
M286.080261,179.879272 
	C286.013000,178.870041 286.336578,177.137680 286.758392,177.113403 
	C290.475891,176.899506 294.210846,176.989395 297.940643,176.989395 
	C298.081360,177.510422 298.222107,178.031448 298.362854,178.552475 
	C296.910278,179.236588 295.457672,179.920700 293.187897,180.989685 
	C293.187897,183.403214 293.309021,186.507950 293.107056,189.591507 
	C293.053192,190.414078 292.010406,191.171875 291.421661,191.959412 
	C290.846832,191.148590 289.875946,190.383713 289.775574,189.517883 
	C289.528931,187.391052 290.050171,185.125214 289.539062,183.097672 
	C289.230042,181.871765 287.569794,180.986496 286.080261,179.879272 
z"/>
<path fill="#DED3E2" opacity="1.000000" stroke="none" 
	d="
M247.189041,105.357834 
	C251.807816,107.757393 256.355621,110.525917 260.952637,113.637878 
	C256.715454,112.961906 252.429123,111.942513 247.707535,110.865227 
	C247.220886,109.113823 247.169479,107.420311 247.189041,105.357834 
z"/>
<path fill="#AD2776" opacity="1.000000" stroke="none" 
	d="
M199.967621,133.213120 
	C199.972412,134.203049 199.977188,135.192993 199.977631,136.554108 
	C194.610138,136.973953 189.246994,137.022629 183.416763,136.993500 
	C182.943390,135.930389 182.937088,134.945084 183.381683,133.488373 
	C189.210922,133.082352 194.589279,133.147736 199.967621,133.213120 
z"/>
<path fill="#B1B1B1" opacity="1.000000" stroke="none" 
	d="
M218.191223,49.424690 
	C216.571091,49.228374 215.034027,48.650501 213.158646,47.935364 
	C214.076431,47.521301 215.331573,47.008484 216.588791,47.003330 
	C233.683838,46.933296 250.779205,46.928764 267.874481,46.933289 
	C268.601349,46.933479 269.328186,47.178497 270.011078,47.993099 
	C254.789597,47.993099 239.567902,47.954216 224.346893,48.039642 
	C222.320892,48.051006 220.298416,48.693123 218.191223,49.424690 
z"/>
<path fill="#B1B1B1" opacity="1.000000" stroke="none" 
	d="
M191.738907,47.577415 
	C190.544342,48.221348 189.047531,48.573280 187.156998,48.891396 
	C185.023911,48.569489 183.285675,48.039246 181.545059,48.031384 
	C166.789932,47.964748 152.034378,47.993313 137.277542,47.285419 
	C155.330582,47.285419 173.383636,47.285419 191.738907,47.577415 
z"/>
<path fill="#EC513A" opacity="1.000000" stroke="none" 
	d="
M220.296448,154.887787 
	C220.254303,153.710480 220.550781,152.719955 220.876312,151.419525 
	C223.603363,151.777191 226.352921,152.296310 228.967438,153.204269 
	C229.735367,153.470963 230.120316,154.840439 230.680801,155.704483 
	C229.719284,156.120422 228.687241,156.997971 227.809738,156.863922 
	C225.383682,156.493362 223.022141,155.700485 220.296448,154.887787 
z"/>
<path fill="#EC513A" opacity="1.000000" stroke="none" 
	d="
M220.358215,136.991608 
	C219.897507,135.933243 219.905472,134.941116 220.368988,133.491486 
	C224.570999,133.096008 228.317474,133.158020 232.063934,133.220032 
	C232.054611,134.204483 232.045288,135.188950 232.051453,136.542374 
	C228.320251,136.960175 224.573547,137.009018 220.358215,136.991608 
z"/>
<path fill="#DED3E2" opacity="1.000000" stroke="none" 
	d="
M272.197754,215.011078 
	C273.115448,213.966782 274.033173,212.922501 275.799133,210.912933 
	C275.799133,213.918976 275.799133,216.011368 275.799133,218.424805 
	C273.536530,218.306519 271.441010,218.196960 268.292633,218.032364 
	C269.140594,215.638580 269.853149,213.627075 270.773102,212.166611 
	C271.386261,213.482132 271.791992,214.246613 272.197754,215.011078 
z"/>
<path fill="#DED3E2" opacity="1.000000" stroke="none" 
	d="
M232.197723,215.011078 
	C233.388107,214.192719 234.578491,213.374390 236.298950,212.191635 
	C236.213226,214.065170 236.119324,216.117493 236.012390,218.454575 
	C233.493042,218.316040 231.410736,218.201538 228.278732,218.029312 
	C229.137863,215.619904 229.851776,213.617752 230.773102,212.166626 
	C231.386246,213.482132 231.791992,214.246597 232.197723,215.011078 
z"/>
<path fill="#B1B1B1" opacity="1.000000" stroke="none" 
	d="
M266.994202,114.380638 
	C267.274933,111.343788 267.561737,108.674995 267.809326,105.585342 
	C267.842896,104.003456 267.915649,102.842422 268.020508,101.243736 
	C269.271240,106.936729 270.489807,113.067368 271.708405,119.198013 
	C271.361115,119.397614 271.013824,119.597221 270.666504,119.796829 
	C269.444458,118.114120 268.222412,116.431404 266.994202,114.380638 
z"/>
<path fill="#AEAFE6" opacity="1.000000" stroke="none" 
	d="
M155.268738,217.789551 
	C153.453720,219.658615 152.409973,219.033752 152.140137,216.706085 
	C151.972916,215.263565 152.109131,213.785858 152.109131,211.768997 
	C154.082764,211.906281 155.854446,212.029510 157.626129,212.152756 
	C157.602615,212.307281 157.611511,212.477386 157.546722,212.612061 
	C157.478302,212.754349 157.339661,212.862839 156.838364,213.406876 
	C156.052933,215.148285 155.660843,216.468918 155.268738,217.789551 
z"/>
<path fill="#DED3E2" opacity="1.000000" stroke="none" 
	d="
M251.015381,216.164230 
	C249.701950,217.031586 248.388519,217.898956 247.075104,218.766327 
	C246.575378,218.424530 246.075668,218.082748 245.575958,217.740952 
	C246.238800,215.699051 246.901627,213.657135 247.772476,212.166412 
	C248.386230,213.482071 248.791977,214.246582 249.197739,215.011078 
	C249.517410,215.002975 249.837097,215.002884 250.456070,215.317291 
	C250.842026,215.803940 250.928696,215.984085 251.015381,216.164230 
z"/>
<path fill="#C9D6E2" opacity="1.000000" stroke="none" 
	d="
M149.695419,217.809082 
	C148.155014,217.334305 146.659927,216.577713 144.564072,215.517105 
	C148.464096,212.928680 149.403717,214.636154 149.695419,217.809082 
z"/>
<path fill="#C9D6E2" opacity="1.000000" stroke="none" 
	d="
M185.446960,214.949768 
	C189.402054,212.820328 189.534988,215.398590 189.687393,218.997650 
	C187.934875,217.479828 186.657822,216.373795 185.446960,214.949768 
z"/>
<path fill="#EC513A" opacity="1.000000" stroke="none" 
	d="
M155.596130,217.727600 
	C155.660843,216.468918 156.052933,215.148285 156.576889,213.572510 
	C156.447006,214.766800 156.185272,216.216232 155.596130,217.727600 
z"/>
<path fill="#541D8E" opacity="1.000000" stroke="none" 
	d="
M232.115814,214.651947 
	C231.791992,214.246597 231.386246,213.482132 231.023331,212.372192 
	C231.388748,212.782074 231.711304,213.537445 232.115814,214.651947 
z"/>
<path fill="#541D8E" opacity="1.000000" stroke="none" 
	d="
M249.115814,214.651947 
	C248.791977,214.246582 248.386230,213.482071 248.023346,212.372131 
	C248.388763,212.782059 248.711319,213.537445 249.115814,214.651947 
z"/>
<path fill="#AD2776" opacity="1.000000" stroke="none" 
	d="
M251.394714,216.028656 
	C250.928696,215.984085 250.842026,215.803940 250.695496,215.330383 
	C250.815109,214.123489 250.994553,213.209991 251.174011,212.296478 
	C251.438934,212.313049 251.703857,212.329620 251.968765,212.346191 
	C251.903870,213.528488 251.838959,214.710785 251.394714,216.028656 
z"/>
<path fill="#541D8E" opacity="1.000000" stroke="none" 
	d="
M272.115814,214.651947 
	C271.791992,214.246613 271.386261,213.482132 271.023346,212.372192 
	C271.388733,212.782074 271.711304,213.537460 272.115814,214.651947 
z"/>
<path fill="#4189E6" opacity="1.000000" stroke="none" 
	d="
M259.179321,79.653580 
	C258.869415,79.493874 258.478973,79.028076 258.071655,78.240929 
	C258.402771,78.395554 258.750763,78.871521 259.179321,79.653580 
z"/>
<path fill="#C9D6E2" opacity="1.000000" stroke="none" 
	d="
M210.005890,82.016205 
	C211.199356,81.506599 212.392807,80.996994 213.796967,80.243965 
	C219.636398,82.707001 225.265106,85.413460 230.503006,88.527290 
	C226.722580,88.994583 223.332962,89.054497 219.622849,89.050629 
	C218.869446,88.928604 218.436539,88.870377 217.942749,88.474373 
	C215.256531,86.096458 212.631210,84.056335 210.005890,82.016205 
z"/>
<path fill="#EC513A" opacity="1.000000" stroke="none" 
	d="
M219.943359,89.114418 
	C223.332962,89.054497 226.722580,88.994583 230.570862,88.876770 
	C232.086655,88.879845 233.143784,88.940811 234.591919,89.071259 
	C234.993011,90.117531 235.003082,91.094322 234.561752,92.525635 
	C229.373825,92.924454 224.637314,92.868759 219.918640,92.443672 
	C219.938797,91.087662 219.941071,90.101036 219.943359,89.114418 
z"/>
<path fill="#88ADE6" opacity="1.000000" stroke="none" 
	d="
M220.038361,70.364380 
	C220.875168,70.501236 221.786194,70.972122 222.843018,71.730911 
	C222.030060,71.578690 221.071335,71.138550 220.038361,70.364380 
z"/>
<path fill="#D9C8E5" opacity="1.000000" stroke="none" 
	d="
M209.543518,82.010406 
	C212.631210,84.056335 215.256531,86.096458 217.479248,88.541252 
	C211.699524,89.006363 206.322388,89.066818 200.484268,89.068939 
	C194.646271,89.051239 189.269257,89.091888 183.892258,89.132530 
	C183.473846,89.087151 183.055420,89.041763 182.328094,88.931274 
	C183.232193,87.894684 184.326385,86.316559 185.677826,86.051857 
	C193.445175,84.530449 201.273499,83.320305 209.543518,82.010406 
z"/>
<path fill="#4189E6" opacity="1.000000" stroke="none" 
	d="
M242.031525,69.370438 
	C245.212265,70.816460 248.442749,72.610580 251.829391,74.709267 
	C248.684113,73.248734 245.382690,71.483635 242.031525,69.370438 
z"/>
<path fill="#829BE7" opacity="1.000000" stroke="none" 
	d="
M240.928650,77.651154 
	C240.096268,77.512695 239.199493,77.039528 238.154770,76.284409 
	C238.959305,76.440445 239.911789,76.878448 240.928650,77.651154 
z"/>
<path fill="#4189E6" opacity="1.000000" stroke="none" 
	d="
M254.054901,76.352432 
	C254.893875,76.490028 255.798508,76.963287 256.842957,77.725983 
	C256.028687,77.572968 255.074631,77.130531 254.054901,76.352432 
z"/>
<path fill="#E3E2E3" opacity="1.000000" stroke="none" 
	d="
M232.506622,133.139145 
	C228.317474,133.158020 224.570999,133.096008 220.356842,133.119553 
	C213.558868,133.149841 207.228607,133.094574 200.432983,133.126221 
	C194.589279,133.147736 189.210922,133.082352 183.363556,133.118958 
	C178.778625,133.142319 174.660858,132.954056 170.547440,133.023407 
	C167.780899,133.070068 166.743286,131.972900 166.805725,129.218307 
	C166.943848,123.124390 166.877106,117.025826 167.374634,110.462608 
	C183.119568,105.747551 198.428589,101.651451 213.627594,97.181259 
	C220.435226,95.179047 226.450958,95.647003 232.391373,99.778473 
	C235.564087,101.985069 239.363159,103.291092 242.879547,105.003555 
	C242.941467,112.567116 242.815552,120.138779 243.140869,127.690987 
	C243.315765,131.751205 242.031372,133.516663 237.879501,133.028046 
	C236.259720,132.837418 234.594070,133.036621 232.506622,133.139145 
z"/>
<path fill="#DED3E2" opacity="1.000000" stroke="none" 
	d="
M242.958679,104.549675 
	C239.363159,103.291092 235.564087,101.985069 232.391373,99.778473 
	C226.450958,95.647003 220.435226,95.179047 213.627594,97.181259 
	C198.428589,101.651451 183.119568,105.747551 167.453613,109.999939 
	C166.992355,105.511162 166.671280,100.996780 167.041183,96.539749 
	C167.144989,95.288971 169.183624,93.355881 170.502518,93.205338 
	C174.618607,92.735481 178.815002,92.968971 183.907684,92.962448 
	C190.206085,92.936310 195.577087,92.877518 201.416367,92.895996 
	C207.890030,92.919868 213.895416,92.866470 219.900787,92.813065 
	C224.637314,92.868759 229.373825,92.924454 234.573227,92.892075 
	C243.174179,93.302727 243.174179,93.302727 242.958679,104.549675 
z"/>
<path fill="#AD2776" opacity="1.000000" stroke="none" 
	d="
M200.948074,92.818726 
	C195.577087,92.877518 190.206085,92.936310 184.364594,92.902863 
	C183.912430,91.829468 183.930756,90.848305 183.920670,89.499832 
	C189.269257,89.091888 194.646271,89.051239 200.493805,89.438126 
	C200.958908,90.850014 200.953491,91.834373 200.948074,92.818726 
z"/>
<path fill="#E3E2E3" opacity="1.000000" stroke="none" 
	d="
M222.186356,180.691010 
	C224.737549,183.205444 225.079269,185.916702 222.569366,187.751938 
	C221.205917,188.748886 218.319870,188.864471 216.806870,188.070267 
	C215.627548,187.451202 214.708069,184.617432 215.077667,183.112900 
	C215.939651,179.604065 218.877365,179.554001 222.186356,180.691010 
z"/>
<path fill="#E3E2E3" opacity="1.000000" stroke="none" 
	d="
M324.678741,183.637619 
	C322.835724,184.383591 321.212646,184.774506 319.284882,185.238770 
	C319.284882,183.134598 319.284882,181.757080 319.284882,180.074081 
	C321.892395,180.307373 325.117859,178.616364 324.678741,183.637619 
z"/>
<path fill="#E3E2E3" opacity="1.000000" stroke="none" 
	d="
M261.972870,182.867981 
	C260.270935,184.007889 258.642151,184.737640 256.396057,185.743973 
	C256.221405,183.422104 256.117615,182.042435 255.863602,178.665222 
	C258.675262,180.390045 260.360657,181.423950 261.972870,182.867981 
z"/>
<path fill="#D82B65" opacity="1.000000" stroke="none" 
	d="
M201.416367,92.895996 
	C200.953491,91.834373 200.958908,90.850014 200.954803,89.496468 
	C206.322388,89.066818 211.699524,89.006363 217.540146,88.879036 
	C218.436539,88.870377 218.869446,88.928604 219.622833,89.050629 
	C219.941071,90.101036 219.938797,91.087662 219.918640,92.443672 
	C213.895416,92.866470 207.890030,92.919868 201.416367,92.895996 
z"/>
</svg>