<?xml version="1.0" standalone="no"?>
<!DOCTYPE svg PUBLIC "-//W3C//DTD SVG 20010904//EN"
 "http://www.w3.org/TR/2001/REC-SVG-20010904/DTD/svg10.dtd">
<svg version="1.0" xmlns="http://www.w3.org/2000/svg"
 width="306.000000pt" height="98.000000pt" viewBox="0 0 306.000000 98.000000"
 preserveAspectRatio="xMidYMid meet">

<g transform="translate(0.000000,98.000000) scale(0.100000,-0.100000)"
fill="#000000" stroke="none">
<path d="M0 490 l0 -490 1530 0 1530 0 0 490 0 490 -1530 0 -1530 0 0 -490z
m2350 210 c0 -29 2 -30 45 -30 l46 0 -23 -30 c-13 -19 -31 -30 -45 -30 -22 0
-24 -3 -21 -47 2 -39 7 -49 23 -51 11 -2 30 -18 43 -37 l22 -35 -60 0 c-51 0
-65 4 -85 25 -21 20 -25 34 -25 85 0 33 -4 60 -10 60 -5 0 -10 14 -10 30 0 17
5 30 10 30 6 0 10 14 10 30 0 28 2 30 40 30 38 0 40 -2 40 -30z m-1555 -17
c15 -14 17 -33 13 -125 -5 -109 2 -136 22 -98 8 14 19 20 40 18 16 -1 27 -5
24 -9 -2 -4 0 -10 6 -14 6 -4 8 -11 5 -16 -9 -14 2 -11 19 6 14 14 13 19 -4
48 -42 68 -8 155 68 177 38 10 162 14 162 5 0 -3 -10 -19 -22 -35 -19 -26 -28
-30 -69 -30 -53 0 -79 -18 -79 -54 0 -34 19 -46 74 -47 46 0 54 -4 80 -36 l30
-35 -95 4 c-52 2 -101 8 -109 11 -10 5 -18 0 -25 -15 -23 -52 -109 -55 -138
-4 -10 18 -18 20 -62 15 l-50 -5 33 -13 c25 -10 31 -17 26 -30 -4 -9 -7 -29
-8 -46 -1 -37 -19 -58 -51 -57 -31 0 -51 20 -51 52 1 20 -5 26 -29 28 -27 3
-44 16 -45 33 0 4 11 10 25 13 39 10 30 23 -20 29 -26 2 -49 8 -53 12 -4 3 -9
51 -10 104 -5 132 -7 131 153 131 103 0 126 -3 140 -17z m518 -25 c25 -13 57
-68 57 -98 0 -39 -37 -90 -77 -107 -54 -22 -101 -11 -142 33 -30 33 -33 41
-28 81 5 49 27 79 72 99 31 14 84 11 118 -8z m246 -3 c13 -13 17 -12 33 2 25
23 82 22 108 -2 17 -16 20 -30 20 -112 l0 -93 -40 0 -40 0 0 74 c0 56 -4 75
-15 80 -28 11 -45 -22 -45 -90 l0 -64 -40 0 -40 0 0 74 c0 78 -8 92 -42 74
-15 -7 -18 -22 -18 -78 l0 -70 -40 0 c-22 0 -40 3 -40 6 0 4 8 28 17 55 17 47
17 51 0 98 -9 27 -17 51 -17 55 0 3 18 6 40 6 22 0 40 -5 40 -10 0 -6 12 -4
28 5 30 16 69 12 91 -10z m404 -16 c22 -24 27 -39 27 -80 0 -45 -4 -55 -35
-86 -36 -36 -49 -38 -111 -18 -19 6 -20 3 -20 -83 1 -50 -2 -93 -6 -97 -4 -4
-20 3 -37 16 l-30 24 0 178 -1 177 34 0 c19 0 36 -5 38 -11 2 -6 14 -5 33 6
39 20 73 12 108 -26z m612 25 c34 -16 65 -65 65 -103 0 -19 -5 -21 -75 -21
-78 0 -95 -11 -50 -32 20 -9 31 -8 50 2 23 12 28 12 47 -7 l20 -21 -25 -16
c-66 -44 -157 -22 -184 43 -34 81 16 161 105 170 8 0 29 -6 47 -15z m-495 -58
c0 -45 5 -69 16 -80 35 -35 54 -8 54 76 l0 68 40 0 40 0 0 -110 0 -110 -40 0
c-22 0 -40 4 -40 9 0 5 -14 3 -30 -6 -34 -16 -70 -12 -94 13 -12 12 -16 37
-16 110 l0 94 35 0 35 0 0 -64z m660 47 c0 -15 1 -15 18 0 33 30 52 22 52 -23
0 -33 -3 -40 -19 -40 -30 0 -51 -39 -51 -92 l0 -48 -40 0 -40 0 0 110 0 110
40 0 c31 0 40 -4 40 -17z m-170 -323 c0 -79 0 -80 -25 -80 -25 0 -25 1 -25 80
0 79 0 80 25 80 25 0 25 -1 25 -80z m-542 -22 c3 -53 1 -58 -18 -58 -15 0 -20
6 -20 29 0 16 -3 37 -6 45 -10 27 -34 -1 -34 -40 0 -27 -4 -34 -20 -34 -18 0
-20 7 -20 59 l0 59 58 -1 57 -2 3 -57z m144 45 c10 -9 18 -27 18 -40 0 -21 -4
-23 -46 -23 -28 0 -43 -4 -39 -10 4 -6 23 -7 46 -4 43 7 53 -8 19 -26 -53 -28
-131 19 -115 69 16 50 79 69 117 34z m159 0 c17 -20 16 -77 -1 -98 -9 -11 -24
-15 -42 -13 -24 4 -28 1 -28 -19 0 -18 -5 -23 -25 -23 -25 0 -25 1 -25 78 0
43 3 81 6 84 13 13 103 6 115 -9z m145 9 c7 -4 13 -30 15 -58 l4 -52 -54 -6
c-41 -5 -58 -3 -69 8 -23 23 -6 54 34 62 51 9 56 28 5 19 -41 -7 -51 1 -29 23
13 13 76 16 94 4z"/>
<path d="M530 585 l0 -85 49 0 49 0 -29 29 c-39 39 -38 75 2 112 l31 29 -51 0
-51 0 0 -85z"/>
<path d="M706 643 c33 -31 33 -85 -1 -119 -14 -14 -25 -26 -25 -27 0 -1 20 -1
45 1 l45 4 0 78 0 78 -44 3 -44 4 24 -22z"/>
<path d="M620 595 c5 -14 7 -32 4 -40 -5 -12 2 -15 32 -13 39 1 39 1 6 5 -32
4 -33 5 -15 19 13 10 14 14 3 12 -9 -2 -14 4 -14 14 1 9 -4 19 -12 22 -10 4
-11 0 -4 -19z"/>
<path d="M1218 599 c-22 -12 -24 -62 -3 -79 15 -13 55 -5 67 14 12 18 9 44 -8
60 -18 18 -32 20 -56 5z"/>
<path d="M1834 585 c-15 -23 -15 -27 0 -50 28 -43 76 -27 76 25 0 52 -48 68
-76 25z"/>
<path d="M2502 608 c-20 -20 -14 -28 23 -28 19 0 35 4 35 8 0 12 -22 32 -35
32 -6 0 -16 -5 -23 -12z"/>
<path d="M2105 330 c-3 -5 3 -10 14 -10 12 0 21 5 21 10 0 6 -6 10 -14 10 -8
0 -18 -4 -21 -10z"/>
<path d="M2264 326 c-9 -23 0 -51 16 -51 10 0 15 10 15 29 0 32 -21 47 -31 22z"/>
<path d="M2415 289 c-4 -6 -4 -13 -1 -16 8 -8 36 5 36 17 0 13 -27 13 -35 -1z"/>
</g>
</svg>
